<svg width="201" height="39" viewBox="0 0 201 39" fill="none" xmlns="http://www.w3.org/2000/svg">
<path d="M38.1395 7.54431H1.86072V18.6907H38.1395V7.54431Z" fill="#EBEBEB"/>
<path d="M38.1395 18.691H1.86072V36.545H38.1395V18.691Z" fill="#0066F6"/>
<path d="M37.1765 5.99426H30.7173V2.82351C30.7173 1.18717 29.8614 0 28.6822 0H11.934C10.7548 0 9.89891 1.18803 9.89891 2.82351V5.99426H2.82351C2.07499 5.9953 1.35742 6.2931 0.828124 6.82239C0.298834 7.35168 0.0010264 8.06927 0 8.81778V35.3151C0.00108327 36.0637 0.298906 36.7812 0.828184 37.3105C1.35746 37.8397 2.07501 38.1376 2.82351 38.1386H37.1765C37.925 38.1376 38.6426 37.8397 39.1719 37.3105C39.7011 36.7812 39.9989 36.0637 40 35.3151V8.81864C39.9991 8.06998 39.7015 7.35218 39.1721 6.82269C38.6428 6.29323 37.9253 5.9953 37.1765 5.99426ZM12.4666 2.82351C12.4664 2.73764 12.4724 2.65184 12.4845 2.56681H28.1324C28.1444 2.65184 28.1505 2.73764 28.1503 2.82351V5.99426H12.4666V2.82351ZM37.4332 35.3151C37.4332 35.3832 37.406 35.4485 37.358 35.4966C37.3099 35.5447 37.2446 35.5718 37.1765 35.5718H2.82351C2.75545 35.5718 2.69018 35.5447 2.64205 35.4966C2.59392 35.4485 2.56688 35.3832 2.56681 35.3151V20.0366H14.6084V20.8067C14.6083 20.8877 14.6243 20.9679 14.6552 21.0426C14.6862 21.1174 14.7315 21.1854 14.7888 21.2426C14.846 21.2999 14.914 21.3453 14.9887 21.3763C15.0635 21.4073 15.1437 21.4232 15.2246 21.4232H25.3916C25.4727 21.4232 25.5528 21.4073 25.6276 21.3763C25.7024 21.3454 25.7703 21.3 25.8277 21.2427C25.8848 21.1855 25.9303 21.1175 25.9613 21.0427C25.9921 20.9679 26.0081 20.8877 26.0081 20.8067V20.0366H37.4332V35.3151ZM37.4332 17.4687H2.56681V8.81864C2.56688 8.75058 2.59392 8.68533 2.64205 8.63721C2.69018 8.58908 2.75545 8.562 2.82351 8.56194H37.1765C37.2446 8.562 37.3099 8.58908 37.358 8.63721C37.406 8.68533 37.4332 8.75058 37.4332 8.81864V17.4687Z" fill="#001533"/>
<path d="M53.9 37V11.52H63.76C65.6667 11.52 67.2467 11.8267 68.5 12.44C69.7667 13.0533 70.7133 13.8667 71.34 14.88C71.9667 15.8933 72.28 17.0067 72.28 18.22C72.28 19.6733 71.8733 20.9267 71.06 21.98C70.26 23.0333 69.0867 23.76 67.54 24.16C68.5533 24.3333 69.4467 24.7 70.22 25.26C70.9933 25.8067 71.6 26.4867 72.04 27.3C72.4933 28.1133 72.72 29.0133 72.72 30C72.72 30.84 72.5733 31.6733 72.28 32.5C71.9867 33.3267 71.5 34.08 70.82 34.76C70.14 35.44 69.2267 35.9867 68.08 36.4C66.9333 36.8 65.5 37 63.78 37H53.9ZM57.7 33.68H63.7C65.4333 33.68 66.6867 33.32 67.46 32.6C68.2467 31.88 68.64 30.9467 68.64 29.8C68.64 28.64 68.2267 27.7067 67.4 27C66.5733 26.2933 65.34 25.94 63.7 25.94H57.7V33.68ZM57.7 14.8V22.64H63.62C65.1 22.64 66.26 22.2867 67.1 21.58C67.9533 20.8733 68.38 19.8933 68.38 18.64C68.38 17.4533 67.9667 16.52 67.14 15.84C66.3267 15.1467 65.1667 14.8 63.66 14.8H57.7ZM91.2725 37L90.7925 32.58V24.56C90.7925 22.9867 90.4658 21.8467 89.8125 21.14C89.1592 20.42 88.1258 20.06 86.7125 20.06C85.9125 20.06 85.1992 20.18 84.5725 20.42C83.9592 20.6467 83.4725 20.9933 83.1125 21.46C82.7658 21.9267 82.5925 22.5133 82.5925 23.22H78.3925C78.3925 21.8067 78.7392 20.66 79.4325 19.78C80.1258 18.9 81.0925 18.26 82.3325 17.86C83.5858 17.4467 85.0458 17.24 86.7125 17.24C88.2725 17.24 89.6458 17.5 90.8325 18.02C92.0192 18.5267 92.9392 19.3267 93.5925 20.42C94.2592 21.5133 94.5925 22.9267 94.5925 24.66V37H91.2725ZM84.8325 37.52C83.2192 37.52 81.8792 37.24 80.8125 36.68C79.7458 36.1067 78.9458 35.36 78.4125 34.44C77.8925 33.52 77.6325 32.54 77.6325 31.5C77.6325 30.2333 77.9525 29.1933 78.5925 28.38C79.2458 27.5533 80.1458 26.94 81.2925 26.54C82.4392 26.14 83.7592 25.94 85.2525 25.94C86.2792 25.94 87.2792 26.0333 88.2525 26.22C89.2258 26.4067 90.1858 26.6533 91.1325 26.96V29.26C90.3592 28.98 89.4992 28.76 88.5525 28.6C87.6192 28.4267 86.7458 28.34 85.9325 28.34C84.7192 28.34 83.7058 28.58 82.8925 29.06C82.0792 29.54 81.6725 30.3533 81.6725 31.5C81.6725 32.34 81.9925 33.0667 82.6325 33.68C83.2725 34.28 84.2858 34.58 85.6725 34.58C86.6858 34.58 87.5792 34.3533 88.3525 33.9C89.1258 33.4333 89.7258 32.8533 90.1525 32.16C90.5792 31.4667 90.7925 30.7733 90.7925 30.08H91.7125C91.7125 31.4133 91.4392 32.6467 90.8925 33.78C90.3592 34.9 89.5792 35.8067 88.5525 36.5C87.5258 37.18 86.2858 37.52 84.8325 37.52ZM115.31 37V25.72C115.31 24.0533 114.91 22.7933 114.11 21.94C113.323 21.0733 112.256 20.64 110.91 20.64C109.843 20.64 108.91 20.9333 108.11 21.52C107.323 22.0933 106.71 22.94 106.27 24.06C105.843 25.1667 105.63 26.52 105.63 28.12H104.27C104.27 25.76 104.57 23.7733 105.17 22.16C105.783 20.5467 106.656 19.3267 107.79 18.5C108.923 17.66 110.283 17.24 111.87 17.24C113.416 17.24 114.723 17.5867 115.79 18.28C116.87 18.9733 117.69 19.96 118.25 21.24C118.81 22.5067 119.09 24 119.09 25.72V37H115.31ZM101.83 37V17.76H105.13L105.63 21.92V37H101.83ZM126.322 37V9.66H130.122V37H126.322ZM129.582 25.58L138.722 17.76H143.942L129.582 29.56V25.58ZM139.762 37L130.842 24.8L134.562 24.02L144.402 37H139.762ZM149.33 11.52H154.79L162.87 28.26H162.51L170.59 11.52H175.87V37H172.03V15.7H172.65L163.93 33.98H161.43L152.75 15.8H153.13V37H149.33V11.52ZM190.566 37.52C188.912 37.52 187.419 37.0933 186.086 36.24C184.752 35.3867 183.692 34.2 182.906 32.68C182.132 31.16 181.746 29.4 181.746 27.4C181.746 25.28 182.132 23.4667 182.906 21.96C183.679 20.44 184.732 19.2733 186.066 18.46C187.399 17.6467 188.899 17.24 190.566 17.24C192.059 17.24 193.339 17.5467 194.406 18.16C195.472 18.76 196.332 19.5733 196.986 20.6C197.639 21.6133 198.086 22.7667 198.326 24.06C198.579 25.3533 198.626 26.6867 198.466 28.06H184.786V25.86H195.866L194.946 26.46C194.986 25.74 194.946 25.02 194.826 24.3C194.719 23.58 194.506 22.92 194.186 22.32C193.866 21.7067 193.412 21.22 192.826 20.86C192.252 20.4867 191.519 20.3 190.626 20.3C189.506 20.3 188.566 20.58 187.806 21.14C187.059 21.7 186.492 22.4533 186.106 23.4C185.719 24.3333 185.526 25.36 185.526 26.48V28.02C185.526 29.26 185.712 30.36 186.086 31.32C186.459 32.28 187.012 33.04 187.746 33.6C188.492 34.1467 189.432 34.42 190.566 34.42C191.672 34.42 192.586 34.16 193.306 33.64C194.039 33.12 194.492 32.34 194.666 31.3H198.546C198.346 32.5533 197.886 33.6467 197.166 34.58C196.446 35.5133 195.519 36.24 194.386 36.76C193.266 37.2667 191.992 37.52 190.566 37.52Z" fill="black"/>
</svg>
